# xmcd CD database file
#
# Track frame offsets:
#	150
#	18071
#	32723
#	48996
#	68699
#	84092
#	101566
#	124394
#	135167
#
# Disc length: 1937 seconds
#
# Revision: 0
# Processed by: cddbd v1.5PL3 Copyright (c) Steve Scherf et al.
# Submitted via: CDex 1.40Release
#
DISCID=63078f09
DTITLE=Umberto Porcaro - You belong to me
DYEAR=2001
DGENRE=Blues
TTITLE0=Temperature
TTITLE1=Oh Baby
TTITLE2=Wokw up This Morning
TTITLE3=Last Night
TTITLE4=Every thing's gonna be Alright
TTITLE5=Pep ti kon Swing
TTITLE6=Don't Wanna Let You Go
TTITLE7=Walkin to my baby
TTITLE8=Rockin Robin
EXTD=YEAR: 2001 ID3G: 0
EXTT0=
EXTT1=
EXTT2=
EXTT3=
EXTT4=
EXTT5=
EXTT6=
EXTT7=
EXTT8=
PLAYORDER=
